<svg width="370" height="164" viewBox="0 0 370 164" fill="none" xmlns="http://www.w3.org/2000/svg">
<g clip-path="url(#clip0_396_3654)">
<path d="M45.7548 51.816C45.7548 51.816 45.8205 62.4725 55.576 62.4725C45.8205 62.4725 45.7548 73.1289 45.7548 73.1289C45.7548 73.1289 45.6891 62.4725 35.9336 62.4725C45.6891 62.4725 45.7548 51.816 45.7548 51.816Z" fill="#3261C1"/>
<path d="M287.137 40.6947C287.137 40.6947 287.181 47.4176 293.336 47.4176C287.181 47.4176 287.137 54.1404 287.137 54.1404C287.137 54.1404 287.093 47.4176 280.938 47.4176C287.093 47.4176 287.137 40.6947 287.137 40.6947Z" fill="#3261C1"/>
<path d="M342.289 90.5011C336.258 88.663 320.544 92.4464 318.886 103.825C318.142 108.939 321.997 113.759 326.736 112.071C333.176 109.776 330.708 103.596 326.787 102.895C317.988 101.315 305.093 121.634 313.957 125.953C317.09 127.484 321.048 123.028 318.718 120.032C316.017 116.563 309.649 122.191 307.678 126.547C305.253 131.897 305.144 137.668 307.802 140.937C308.335 141.588 309.576 140.243 309.051 139.592C306.918 136.975 306.838 132.676 308.328 128.328C309.16 125.889 310.723 123.729 312.68 122.17C313.899 121.197 315.192 120.783 316.374 120.847C318.01 120.94 319.441 124.444 315.513 124.451C310.562 124.459 312.68 116.055 315.228 112.1C317.682 108.281 321.603 105.098 325.137 104.576C326.838 104.326 332.22 107.58 327.693 110.119C325.108 111.571 322.734 109.912 321.406 108.374C318.959 105.542 320.493 100.128 324.158 96.9021C329.262 92.4178 337.017 90.7871 341.617 92.1889C342.413 92.4321 343.078 90.7371 342.289 90.4939V90.5011Z" fill="#16B368"/>
<path d="M46.3746 155.856C51.5371 152.294 58.0651 137.797 49.865 129.565C46.1774 125.868 39.9269 125.925 38.4081 130.631C36.3343 137.032 42.8404 138.877 45.805 136.267C52.4499 130.395 43.8773 108.002 34.9762 112.243C31.829 113.745 33.0192 119.531 36.8601 119.552C41.3143 119.574 40.6425 111.199 38.3205 107.008C35.4654 101.866 30.8651 98.2539 26.6008 98.3254C25.7537 98.3397 26.0823 100.128 26.9293 100.113C30.3467 100.056 33.8736 102.617 36.4877 106.429C37.9481 108.56 38.7513 111.092 38.817 113.559C38.8608 115.097 38.4081 116.356 37.6341 117.235C36.5607 118.444 32.8586 117.421 35.239 114.374C38.2475 110.527 43.7605 117.3 45.4107 121.691C47.0026 125.925 47.1851 130.91 45.4545 133.971C44.6221 135.444 38.7002 137.633 39.4085 132.576C39.8101 129.687 42.5995 128.857 44.6513 128.764C48.4338 128.585 51.8803 133.084 52.2527 137.897C52.7711 144.592 49.3611 151.608 45.418 154.325C44.7316 154.797 45.7028 156.349 46.3819 155.877L46.3746 155.856Z" fill="#F07E3D"/>
<path d="M83.977 134.429L79.2627 143.85L82.4887 145.399L87.203 135.978L83.977 134.429Z" fill="#16B368"/>
<path d="M61.2127 93.5764L64.024 95.5218L67.2515 94.356L66.2292 97.5744L68.3614 100.221L64.9221 100.271L63.0017 103.074L61.8991 99.8773L58.584 98.9619L61.3441 96.945L61.2127 93.5764Z" fill="#FFC24C"/>
<path d="M94.7456 73.1002L87.8086 81.095L90.5461 83.3737L97.4831 75.3789L94.7456 73.1002Z" fill="#F07E3D"/>
<path d="M12.9225 73.1058L10.5293 75.7302L18.5186 82.7194L20.9118 80.095L12.9225 73.1058Z" fill="#16B368"/>
<path d="M18.0801 37.8625V41.2311L20.9133 43.1407L17.642 44.1849L16.6635 47.4176L14.6336 44.6855L11.1943 44.7714L13.217 42.0465L12.0706 38.8638L15.3492 39.908L18.0801 37.8625Z" fill="#FFC24C"/>
<path d="M16.0568 118.043C16.0568 118.043 16.1006 124.766 22.2562 124.766C16.1006 124.766 16.0568 131.489 16.0568 131.489C16.0568 131.489 16.013 124.766 9.85742 124.766C16.013 124.766 16.0568 118.043 16.0568 118.043Z" fill="#3261C1"/>
<path d="M23.5125 145.392L26.3238 147.338L29.5513 146.179L28.529 149.398L30.6612 152.044L27.2146 152.087L25.3015 154.89L24.1989 151.701L20.8838 150.778L23.6439 148.761L23.5125 145.392Z" fill="#FFC24C"/>
<path d="M42.4389 25.7471C42.4389 27.1059 41.3144 28.2002 39.9343 28.2002C38.5542 28.2002 37.4297 27.0988 37.4297 25.7471C37.4297 24.3953 38.5542 23.2939 39.9343 23.2939C41.3144 23.2939 42.4389 24.3953 42.4389 25.7471Z" fill="#3261C1"/>
<path d="M2.65959 15.2002L-0.000976562 17.5647L7.19729 25.3347L9.85785 22.9702L2.65959 15.2002Z" fill="#F07E3D"/>
<path d="M130.91 22.1782L133.721 24.1307L136.949 22.9649L135.934 26.1833L138.059 28.8296L134.619 28.8725L132.706 31.676L131.596 28.4863L128.281 27.5708L131.041 25.554L130.91 22.1782Z" fill="#FFC24C"/>
<path d="M121.031 11.3073C121.031 12.6661 119.907 13.7604 118.527 13.7604C117.146 13.7604 116.015 12.659 116.015 11.3073C116.015 9.95553 117.139 8.85413 118.527 8.85413C119.914 8.85413 121.031 9.95553 121.031 11.3073Z" fill="#3261C1"/>
<path d="M93.6401 12.8713L90.9795 15.2358L98.1778 23.0059L100.838 20.6413L93.6401 12.8713Z" fill="#F07E3D"/>
<path d="M161.995 37.8626C161.995 39.2214 160.87 40.3157 159.49 40.3157C158.11 40.3157 156.979 39.2143 156.979 37.8626C156.979 36.5108 158.103 35.4094 159.49 35.4094C160.878 35.4094 161.995 36.5108 161.995 37.8626Z" fill="#3261C1"/>
<path d="M121.03 45.0933C121.03 45.0933 121.074 51.8161 127.23 51.8161C121.074 51.8161 121.03 58.539 121.03 58.539C121.03 58.539 120.987 51.8161 114.831 51.8161C120.987 51.8161 121.03 45.0933 121.03 45.0933Z" fill="#3261C1"/>
<path d="M145.464 64.9257C145.464 66.2845 144.339 67.3788 142.959 67.3788C141.579 67.3788 140.447 66.2774 140.447 64.9257C140.447 63.5739 141.572 62.4725 142.959 62.4725C144.347 62.4725 145.464 63.5739 145.464 64.9257Z" fill="#3261C1"/>
<path d="M324.245 51.816C324.245 51.816 324.172 62.4725 314.417 62.4725C324.172 62.4725 324.245 73.1289 324.245 73.1289C324.245 73.1289 324.311 62.4725 334.067 62.4725C324.311 62.4725 324.245 51.816 324.245 51.816Z" fill="#3261C1"/>
<path d="M286.018 134.446L282.792 135.994L287.505 145.416L290.731 143.868L286.018 134.446Z" fill="#16B368"/>
<path d="M308.787 93.5764L305.976 95.5218L302.749 94.356L303.771 97.5744L301.639 100.221L305.085 100.271L306.998 103.074L308.101 99.8773L311.416 98.9619L308.656 96.945L308.787 93.5764Z" fill="#FFC24C"/>
<path d="M275.26 73.1091L272.522 75.3878L279.459 83.3826L282.197 81.1039L275.26 73.1091Z" fill="#F07E3D"/>
<path d="M357.075 73.1121L349.086 80.1012L351.479 82.7256L359.468 75.7364L357.075 73.1121Z" fill="#16B368"/>
<path d="M351.92 37.8625V41.2311L349.087 43.1407L352.358 44.1849L353.344 47.4176L355.359 44.6855L358.806 44.7714L356.783 42.0465L357.93 38.8638L354.651 39.908L351.92 37.8625Z" fill="#FFC24C"/>
<path d="M301.826 8.29949L298.6 9.84753L303.312 19.2696L306.538 17.7216L301.826 8.29949Z" fill="#16B368"/>
<path d="M353.95 111.321C353.95 111.321 353.907 118.043 347.751 118.043C353.907 118.043 353.95 124.766 353.95 124.766C353.95 124.766 353.994 118.043 360.142 118.043C353.987 118.043 353.95 111.321 353.95 111.321Z" fill="#3261C1"/>
<path d="M346.488 143.848L343.676 145.793L340.449 144.627L341.471 147.846L339.339 150.499L342.785 150.542L344.699 153.345L345.801 150.149L349.116 149.233L346.356 147.216L346.488 143.848Z" fill="#FFC24C"/>
<path d="M327.561 25.7471C327.561 27.1059 328.685 28.2002 330.065 28.2002C331.445 28.2002 332.577 27.0988 332.577 25.7471C332.577 24.3953 331.453 23.2939 330.065 23.2939C328.678 23.2939 327.561 24.3953 327.561 25.7471Z" fill="#3261C1"/>
<path d="M367.33 15.1786L360.132 22.9486L362.792 25.3131L369.991 17.5431L367.33 15.1786Z" fill="#F07E3D"/>
<path d="M218.557 33.0497L210.567 40.0388L212.961 42.6632L220.95 35.6741L218.557 33.0497Z" fill="#16B368"/>
<path d="M227.779 60.1768L224.967 62.1221L221.74 60.9635L222.755 64.1819L220.63 66.8281L224.069 66.871L225.982 69.6746L227.092 66.4848L230.407 65.5622L227.647 63.5453L227.779 60.1768Z" fill="#FFC24C"/>
<path d="M276.357 12.8521L269.159 20.6221L271.82 22.9866L279.018 15.2166L276.357 12.8521Z" fill="#F07E3D"/>
<path d="M211.707 11.3073C211.707 12.6661 212.832 13.7604 214.212 13.7604C215.592 13.7604 216.724 12.659 216.724 11.3073C216.724 9.95553 215.599 8.85413 214.212 8.85413C212.824 8.85413 211.707 9.95553 211.707 11.3073Z" fill="#3261C1"/>
<path d="M248.969 45.0933C248.969 45.0933 248.925 51.8161 242.77 51.8161C248.925 51.8161 248.969 58.539 248.969 58.539C248.969 58.539 249.013 51.8161 255.168 51.8161C249.013 51.8161 248.969 45.0933 248.969 45.0933Z" fill="#3261C1"/>
<path d="M233.576 26.9272C233.576 28.2861 234.701 29.3804 236.081 29.3804C237.461 29.3804 238.593 28.279 238.593 26.9272C238.593 25.5755 237.468 24.4741 236.081 24.4741C234.693 24.4741 233.576 25.5755 233.576 26.9272Z" fill="#3261C1"/>
<path d="M177.237 57.3347L174.499 59.6134L181.436 67.6082L184.174 65.3295L177.237 57.3347Z" fill="#F07E3D"/>
<path d="M191.568 25.3323C191.568 26.6912 190.444 27.7854 189.064 27.7854C187.684 27.7854 186.552 26.684 186.552 25.3323C186.552 23.9806 187.676 22.8792 189.064 22.8792C190.451 22.8792 191.568 23.9806 191.568 25.3323Z" fill="#16B368"/>
<path d="M81.7748 42.64C81.7748 43.9989 80.6503 45.0931 79.2702 45.0931C77.8901 45.0931 76.7656 43.9917 76.7656 42.64C76.7656 41.2883 77.8901 40.1869 79.2702 40.1869C80.6503 40.1869 81.7748 41.2883 81.7748 42.64Z" fill="#16B368"/>
</g>
<defs>
<clipPath id="clip0_396_3654">
<rect width="370" height="163.179" fill="white"/>
</clipPath>
</defs>
</svg>
