<svg width="14" height="14" viewBox="0 0 14 14" fill="none" xmlns="http://www.w3.org/2000/svg">
<path d="M7 0C3.136 0 0 3.136 0 7C0 10.864 3.136 14 7 14C10.864 14 14 10.864 14 7C14 3.136 10.864 0 7 0ZM7.987 11.263V12.6H6.118V11.249C4.921 10.997 3.906 10.227 3.829 8.869H5.201C5.271 9.604 5.775 10.178 7.056 10.178C8.428 10.178 8.736 9.492 8.736 9.065C8.736 8.484 8.428 7.938 6.867 7.567C5.131 7.147 3.941 6.433 3.941 4.998C3.941 3.794 4.914 3.01 6.118 2.751V1.4H7.987V2.765C9.289 3.08 9.94 4.067 9.982 5.138H8.61C8.575 4.361 8.162 3.829 7.056 3.829C6.006 3.829 5.376 4.305 5.376 4.977C5.376 5.565 5.831 5.95 7.245 6.314C8.659 6.678 10.171 7.287 10.171 9.051C10.164 10.332 9.205 11.032 7.987 11.263Z" fill="white"/>
</svg>
