<svg width="19" height="18" viewBox="0 0 20 19" fill="none" xmlns="http://www.w3.org/2000/svg">
<path d="M10 2.25625C11.3775 2.25625 12.4938 3.3725 12.4938 4.75C12.4938 6.1275 11.3775 7.24375 10 7.24375C8.6225 7.24375 7.50625 6.1275 7.50625 4.75C7.50625 3.3725 8.6225 2.25625 10 2.25625ZM10 12.9437C13.5269 12.9437 17.2437 14.6775 17.2437 15.4375V16.7437H2.75625V15.4375C2.75625 14.6775 6.47312 12.9437 10 12.9437ZM10 0C7.37563 0 5.25 2.12562 5.25 4.75C5.25 7.37437 7.37563 9.5 10 9.5C12.6244 9.5 14.75 7.37437 14.75 4.75C14.75 2.12562 12.6244 0 10 0ZM10 10.6875C6.82937 10.6875 0.5 12.2787 0.5 15.4375V19H19.5V15.4375C19.5 12.2787 13.1706 10.6875 10 10.6875Z" fill="#A9A9A9"/>
</svg>
