<svg width="18" height="20" viewBox="0 0 18 20" fill="none" xmlns="http://www.w3.org/2000/svg">
<path d="M8.99999 20C10.1282 20 11.0513 19.0769 11.0513 17.9487H6.94871C6.94871 19.0769 7.87178 20 8.99999 20ZM15.1538 13.8462V8.71795C15.1538 5.56923 13.482 2.93333 10.5385 2.2359V1.53846C10.5385 0.68718 9.85127 0 8.99999 0C8.14871 0 7.46153 0.68718 7.46153 1.53846V2.2359C4.52819 2.93333 2.84614 5.55897 2.84614 8.71795V13.8462L0.794861 15.8974V16.9231H17.2051V15.8974L15.1538 13.8462ZM13.1026 14.8718H4.89743V8.71795C4.89743 6.17436 6.44614 4.10256 8.99999 4.10256C11.5538 4.10256 13.1026 6.17436 13.1026 8.71795V14.8718Z" fill="#A9A9A9"/>
</svg>
