<svg width="20" height="20" viewBox="0 0 20 20" fill="none" xmlns="http://www.w3.org/2000/svg">
<path d="M10 0C4.48 0 0 4.48 0 10C0 15.52 4.48 20 10 20C15.52 20 20 15.52 20 10C20 4.48 15.52 0 10 0ZM11 3.3L12.35 2.35C14.17 2.91 15.72 4.11 16.73 5.69L16.34 7.03L14.99 7.49L11 4.7V3.3ZM7.65 2.35L9 3.3V4.7L5.01 7.49L3.66 7.03L3.27 5.69C4.28 4.12 5.83 2.92 7.65 2.35ZM5.08 15.11L3.94 15.21C2.73 13.81 2 11.99 2 10C2 9.88 2.01 9.77 2.02 9.65L3.02 8.92L4.4 9.4L5.86 13.74L5.08 15.11ZM12.5 17.59C11.71 17.85 10.87 18 10 18C9.13 18 8.29 17.85 7.5 17.59L6.81 16.1L7.45 15H12.56L13.2 16.11L12.5 17.59ZM12.27 13H7.73L6.38 8.98L10 6.44L13.63 8.98L12.27 13ZM16.06 15.21L14.92 15.11L14.13 13.74L15.59 9.4L16.98 8.93L17.98 9.66C17.99 9.77 18 9.88 18 10C18 11.99 17.27 13.81 16.06 15.21Z" fill="#A9A9A9"/>
</svg>
